<svg preserveAspectRatio="none" overflow="visible" style="display: block;" width="70.9639" height="92.4821" viewBox="0 0 70.9639 92.4821" fill="none" xmlns="http://www.w3.org/2000/svg">
<g id="Group 18">
<path id="Vector 54" d="M11.3205 82.2939L21.891 76.2536V64.173L11.3205 58.1327L0.75 64.173V76.2536L11.3205 82.2939ZM0.75 64.173L11.3205 70.2133M21.891 64.173L11.3205 70.2133M11.3205 70.2133V82.2939" stroke="#1D9DA1" stroke-width="1.5" stroke-linecap="round" stroke-linejoin="round"/>
<path id="Vector 55" d="M21.8908 69.8358L27.1761 72.856L37.7466 66.8157V42.6545L27.1761 36.6142L16.6056 42.6545V61.1529M16.6056 42.6545L27.1761 48.6948M27.1761 48.6948L37.7466 42.6545M27.1761 48.6948V72.856" stroke="#1D9DA1" stroke-width="1.5" stroke-linecap="round" stroke-linejoin="round"/>
<path id="Vector 56" d="M32.4611 39.6343V21.8909L43.0317 15.8506L53.6022 21.8909V58.1327L43.0317 64.173L37.7464 61.1529M43.0317 64.173V27.9312M53.6022 21.8909L43.0317 27.9312M43.0317 27.9312L32.4611 21.8909" stroke="#1D9DA1" stroke-width="1.5" stroke-linecap="round" stroke-linejoin="round"/>
<path id="Vector 57" d="M6.79068 91.732L70.2138 55.1146M59.6433 0.75V73.6111" stroke="#1D9DA1" stroke-width="1.5" stroke-linecap="round"/>
</g>
</svg>
