<svg preserveAspectRatio="none" overflow="visible" style="display: block;" width="142" height="74.1658" viewBox="0 0 142 74.1658" fill="none" xmlns="http://www.w3.org/2000/svg">
<g id="Group 20">
<path id="Vector" d="M57.25 32.75L67.1695 27.0817C69.1695 28.5817 73.75 31.15 77.75 28.75C81.0833 26.75 75.4466 22.352 75.4466 22.352L85.25 16.75M67.1695 27.0817L67.25 35.1423M29.25 48.75L39.25 42.7508C36.75 41.368 33.4744 38.1718 35.75 36.75C39.75 34.2508 44.0833 37.5833 46.75 38.75L57.25 32.75M29.25 16.7496L39.75 22.75C42.4167 21.0833 48.35 18.25 50.75 20.25C53.15 22.25 49.0833 25.4167 46.75 26.75L57.25 32.75M57.25 32.75L64.3582 36.8119M66.75 38.25C64.25 39.5833 60.05 42.85 63.25 45.25C66.45 47.65 71.9164 44.2976 74.25 42.4643L85.25 48.75V57.25L57.25 73.4158L0.75 40.7955V32.75L57.25 0.75L85.25 16.75V24.75L78.7946 28.6361M0.75 32.75L57.25 64.75L85.25 48.75M64.3582 36.8119L66.75 38.25V46.0365M64.3582 36.8119L67.25 35.1423M67.25 35.1423C69.0833 36.4756 74.35 39.45 78.75 36.25L78.8034 27.1444" stroke="#1D9DA1" stroke-width="1.5" stroke-linejoin="round"/>
<path id="Vector_2" d="M89.8915 44.3212L85.25 41.75V32.75L94.25 27.75C94.25 27.75 101.65 31.0547 105.25 28.75C108.85 26.4453 102.75 22.75 102.75 22.75M113.25 48.75L103.75 43.25C103.75 43.25 95.7153 48.2268 91.25 45.25C86.75 42.25 94.75 38.25 94.75 38.25L85.25 32.75M102.75 29.25V22.75L113.25 16.75L141.25 32.75V40.25L113.25 56.25L103.75 50.75M141.25 32.75L113.25 48.75M113.25 48.75V56.25M103.75 43.25L103.75 50.75M103.75 50.75C102.083 52.4167 93.75 56.25 89.75 51.25L89.9239 42.75" stroke="#1D9DA1" stroke-width="1.5" stroke-linejoin="round"/>
</g>
</svg>
