<svg width="9.5" height="20.5" viewBox="0 0 9.5 20.5" fill="none" xmlns="http://www.w3.org/2000/svg">

<path d="M5.5 17C5.5 17.4142 5.16421 17.75 4.75 17.75C4.33579 17.75 4 17.4142 4 17V4H5.5V17Z" fill="#535353"/>
<path fill-rule="evenodd" clip-rule="evenodd" d="M8.5 0C9.05228 0 9.5 0.447715 9.5 1C9.5 1.55228 9.05228 2 8.5 2H8.00098L8 17.25L7.99512 17.4346C7.8995 19.1436 6.48303 20.5 4.75 20.5L4.56543 20.4951L4.38379 20.4795C2.76127 20.2975 1.5 18.9211 1.5 17.25L1.49902 2H1C0.447715 2 0 1.55228 0 1C0 0.447715 0.447715 0 1 0H8.5ZM3 2V17.25L3.00586 17.3936C3.0789 18.2929 3.83185 19 4.75 19C5.7165 19 6.5 18.2165 6.5 17.25L6.50098 2H3Z" fill="#535353"/>

</svg>
