<svg preserveAspectRatio="none" overflow="visible" style="display: block;" width="16" height="16" viewBox="0 0 16 16" fill="none" xmlns="http://www.w3.org/2000/svg">
<g id="leading-icon">
<path id="icon" d="M3.33333 12.6667V3.33333V10.9V9.48333V12.6667ZM3.33333 14C2.96667 14 2.65278 13.8694 2.39167 13.6083C2.13056 13.3472 2 13.0333 2 12.6667V3.33333C2 2.96667 2.13056 2.65278 2.39167 2.39167C2.65278 2.13056 2.96667 2 3.33333 2H12.6667C13.0333 2 13.3472 2.13056 13.6083 2.39167C13.8694 2.65278 14 2.96667 14 3.33333V8.66667H12.6667V3.33333H3.33333V12.6667H8V14H3.33333ZM11.5667 14.6667L9.2 12.3L10.15 11.3667L11.5667 12.7833L14.4 9.95L15.3333 10.9L11.5667 14.6667ZM5.33333 8.66667C5.52222 8.66667 5.68056 8.60278 5.80833 8.475C5.93611 8.34722 6 8.18889 6 8C6 7.81111 5.93611 7.65278 5.80833 7.525C5.68056 7.39722 5.52222 7.33333 5.33333 7.33333C5.14444 7.33333 4.98611 7.39722 4.85833 7.525C4.73056 7.65278 4.66667 7.81111 4.66667 8C4.66667 8.18889 4.73056 8.34722 4.85833 8.475C4.98611 8.60278 5.14444 8.66667 5.33333 8.66667ZM5.33333 6C5.52222 6 5.68056 5.93611 5.80833 5.80833C5.93611 5.68056 6 5.52222 6 5.33333C6 5.14444 5.93611 4.98611 5.80833 4.85833C5.68056 4.73056 5.52222 4.66667 5.33333 4.66667C5.14444 4.66667 4.98611 4.73056 4.85833 4.85833C4.73056 4.98611 4.66667 5.14444 4.66667 5.33333C4.66667 5.52222 4.73056 5.68056 4.85833 5.80833C4.98611 5.93611 5.14444 6 5.33333 6ZM7.33333 8.66667H11.3333V7.33333H7.33333V8.66667ZM7.33333 6H11.3333V4.66667H7.33333V6Z" fill="#535353"/>
</g>
</svg>
